<svg width="257" height="232" viewBox="0 0 257 232" fill="none" xmlns="http://www.w3.org/2000/svg">
<path d="M128.454 230.914C198.836 230.914 255.892 224.714 255.892 217.065C255.892 209.417 198.836 203.217 128.454 203.217C58.0716 203.217 1.0155 209.417 1.0155 217.065C1.0155 224.714 58.0716 230.914 128.454 230.914Z" fill="white"/>
<path d="M128.454 230.914C198.836 230.914 255.892 224.714 255.892 217.065C255.892 209.417 198.836 203.217 128.454 203.217C58.0716 203.217 1.0155 209.417 1.0155 217.065C1.0155 224.714 58.0716 230.914 128.454 230.914Z" stroke="#3D4152" stroke-miterlimit="10" stroke-linecap="round"/>
<path d="M194.775 193.494H61.5851V33.7312C61.5851 33.7312 93.7377 26.1033 124.593 26.1033C155.448 26.1033 194.76 33.7312 194.76 33.7312V193.494H194.775Z" fill="#FFAA01"/>
<path d="M176.894 55.1918H79.4667V172.048H176.894V55.1918Z" fill="#FF9FB5"/>
<path d="M176.894 55.1918H79.4667V172.048H176.894V55.1918Z" stroke="#3D4152" stroke-miterlimit="10" stroke-linecap="round"/>
<path d="M194.775 193.494H61.5851V33.7312C61.5851 33.7312 93.7377 26.1033 124.593 26.1033C155.448 26.1033 194.76 33.7312 194.76 33.7312V193.494H194.775Z" stroke="#3D4152" stroke-miterlimit="10" stroke-linecap="round"/>
<path d="M61.5849 193.494V219.394H72.6359C78.4349 214.877 85.7345 212.188 93.6593 212.188C101.584 212.188 108.868 214.892 114.683 219.394H134.628C140.427 214.877 147.726 212.188 155.651 212.188C163.576 212.188 170.86 214.892 176.675 219.394H194.76V193.494H61.5692H61.5849Z" fill="#FF527A"/>
<path d="M61.5849 193.494V219.394H72.6359C78.4349 214.877 85.7345 212.188 93.6593 212.188C101.584 212.188 108.868 214.892 114.683 219.394H134.628C140.427 214.877 147.726 212.188 155.651 212.188C163.576 212.188 170.86 214.892 176.675 219.394H194.76V193.494H61.5692H61.5849Z" stroke="#3D4152" stroke-miterlimit="10" stroke-linecap="round"/>
<path d="M174.627 14.0674C161.107 5.78304 145.21 1 128.188 1C111.166 1 95.2695 5.78304 81.7488 14.0674H46.7826L48.3769 19.2568L61.6006 33.7466C61.6006 33.7466 96.5668 24.9152 128.188 26.15C159.809 27.3849 194.775 33.7466 194.775 33.7466L208.343 18.9755L209.593 14.083H174.627V14.0674Z" fill="#98ABF9"/>
<path d="M174.627 14.0674C161.107 5.78304 145.21 1 128.188 1C111.166 1 95.2695 5.78304 81.7488 14.0674H46.7826L48.3769 19.2568L61.6006 33.7466C61.6006 33.7466 96.5668 24.9152 128.188 26.15C159.809 27.3849 194.775 33.7466 194.775 33.7466L208.343 18.9755L209.593 14.083H174.627V14.0674Z" stroke="#3D4152" stroke-miterlimit="10" stroke-linecap="round"/>
<path d="M209.593 14.0674H174.627C161.107 5.78304 145.21 1 128.188 1C111.166 1 95.2695 5.78304 81.7488 14.0674H46.7826L48.3769 19.2568L54.6293 26.1188C67.6185 21.4608 126.984 3.07891 201.794 26.0875L208.327 18.9755L209.578 14.083L209.593 14.0674Z" fill="#FF527A"/>
<path d="M209.593 14.0674H174.627C161.107 5.78304 145.21 1 128.188 1C111.166 1 95.2695 5.78304 81.7488 14.0674H46.7826L48.3769 19.2568L54.6293 26.1188C67.6185 21.4608 126.984 3.07891 201.794 26.0875L208.327 18.9755L209.578 14.083L209.593 14.0674Z" stroke="#3D4152" stroke-miterlimit="10" stroke-linecap="round"/>
<path d="M79.4667 55.1921L61.5851 33.731V193.494L79.4667 172.048V55.1921Z" fill="#FF527A"/>
<path d="M176.894 55.1921L194.775 33.731V193.494L176.894 172.048V55.1921Z" fill="#FF527A"/>
<path d="M79.4667 55.1921L61.5851 33.731V193.494L79.4667 172.048V55.1921Z" stroke="#3D4152" stroke-miterlimit="10" stroke-linecap="round"/>
<path d="M176.894 55.1921L194.775 33.731V193.494L176.894 172.048V55.1921Z" stroke="#3D4152" stroke-miterlimit="10" stroke-linecap="round"/>
<path d="M194.775 33.7312C194.775 33.7312 206.092 26.541 219.144 26.1033V193.494H194.775V33.7312Z" fill="#B3E4DA"/>
<path d="M194.775 33.7312C194.775 33.7312 206.092 26.541 219.144 26.1033V193.494H194.775V33.7312V33.7312Z" stroke="#3D4152" stroke-miterlimit="10" stroke-linecap="round"/>
<path d="M61.585 33.7312C61.585 33.7312 33.4339 26.541 0.999878 26.1033V193.494H61.585V33.7312Z" fill="#B3E4DA"/>
<path d="M61.585 33.7312C61.585 33.7312 33.4339 26.541 0.999878 26.1033V193.494H61.585V33.7312V33.7312Z" stroke="#3D4152" stroke-miterlimit="10" stroke-linecap="round"/>
<path d="M184.834 62.8671H73.2925V67.7439H184.834V62.8671Z" fill="white"/>
<path d="M184.834 62.8671H73.2925V67.7439H184.834V62.8671Z" stroke="#3D4152" stroke-miterlimit="10" stroke-linecap="round"/>
<path d="M136.426 76.872C136.426 79.6074 134.769 82.1709 132.705 82.5773C130.642 82.9837 128.938 81.0924 128.923 78.357L106.524 91.737C104.648 92.8468 103.382 95.3946 103.398 97.9737C103.413 101.209 105.414 103.444 107.868 102.976L158.403 93.0343C160.857 92.5498 162.826 89.533 162.81 86.2974V85.4534C162.795 82.7961 161.419 80.7329 159.465 80.4359L136.41 76.9033L136.426 76.872Z" stroke="white" stroke-linecap="round" stroke-linejoin="round"/>
<path d="M133.643 70.479L133.597 62.6948L133.628 61.6006C133.565 56.3487 129.751 57.4272 129.751 57.4272C125.625 58.6151 126.031 63.1325 126.031 63.1325L128.548 62.5385C128.548 61.3974 129.142 60.569 129.939 60.5065C130.736 60.444 131.565 60.7409 131.611 63.0856L131.674 73.9334L133.659 73.5426C134.128 73.824 134.566 74.4805 134.55 75.981C134.519 78.3413 133.643 79.1541 132.846 79.4042C132.049 79.6543 131.44 79.0603 131.44 77.9192L128.923 78.3256C128.923 78.3256 128.579 82.9836 132.706 82.546C132.706 82.546 136.004 81.8582 136.426 76.8407C136.426 76.8407 137.114 70.7447 133.643 70.4633V70.479Z" fill="#FF527A"/>
<path d="M133.643 70.479L133.597 62.6948L133.628 61.6006C133.565 56.3487 129.751 57.4272 129.751 57.4272C125.625 58.6151 126.031 63.1325 126.031 63.1325L128.548 62.5385C128.548 61.3974 129.142 60.569 129.939 60.5065C130.736 60.444 131.565 60.7409 131.611 63.0856L131.674 73.9334L133.659 73.5426C134.128 73.824 134.566 74.4805 134.55 75.981C134.519 78.3413 133.643 79.1541 132.846 79.4042C132.049 79.6543 131.44 79.0603 131.44 77.9192L128.923 78.3256C128.923 78.3256 128.579 82.9836 132.706 82.546C132.706 82.546 136.004 81.8582 136.426 76.8407C136.426 76.8407 137.114 70.7447 133.643 70.4633V70.479Z" stroke="#3D4152" stroke-linecap="round" stroke-linejoin="round"/>
<path d="M120.106 76.872C120.106 79.6074 118.45 82.1709 116.386 82.5773C114.323 82.9837 112.619 81.0924 112.604 78.357L90.2047 91.737C88.329 92.8468 87.0629 95.3946 87.0785 97.9737C87.0941 101.209 89.0949 103.444 91.5489 102.976L142.083 93.0343C144.537 92.5498 146.507 89.533 146.491 86.2974V85.4534C146.476 82.7961 145.1 80.7329 143.146 80.4359L120.091 76.9033L120.106 76.872Z" stroke="white" stroke-linecap="round" stroke-linejoin="round"/>
<path d="M117.309 70.479L117.262 62.6948L117.293 61.6006C117.231 56.3487 113.417 57.4272 113.417 57.4272C109.29 58.6151 109.697 63.1325 109.697 63.1325L112.213 62.5385C112.213 61.3974 112.807 60.569 113.604 60.5065C114.402 60.444 115.23 60.7409 115.277 63.0856L115.339 73.9334L117.325 73.5426C117.793 73.824 118.231 74.4805 118.215 75.981C118.184 78.3413 117.309 79.1541 116.512 79.4042C115.715 79.6543 115.105 79.0603 115.105 77.9192L112.588 78.3256C112.588 78.3256 112.244 82.9836 116.371 82.546C116.371 82.546 119.669 81.8582 120.091 76.8407C120.091 76.8407 120.779 70.7447 117.309 70.4633V70.479Z" fill="#FF527A"/>
<path d="M117.309 70.479L117.262 62.6948L117.293 61.6006C117.231 56.3487 113.417 57.4272 113.417 57.4272C109.29 58.6151 109.697 63.1325 109.697 63.1325L112.213 62.5385C112.213 61.3974 112.807 60.569 113.604 60.5065C114.402 60.444 115.23 60.7409 115.277 63.0856L115.339 73.9334L117.325 73.5426C117.793 73.824 118.231 74.4805 118.215 75.981C118.184 78.3413 117.309 79.1541 116.512 79.4042C115.715 79.6543 115.105 79.0603 115.105 77.9192L112.588 78.3256C112.588 78.3256 112.244 82.9836 116.371 82.546C116.371 82.546 119.669 81.8582 120.091 76.8407C120.091 76.8407 120.779 70.7447 117.309 70.4633V70.479Z" stroke="#3D4152" stroke-linecap="round" stroke-linejoin="round"/>
<path d="M103.569 76.872C103.569 79.6074 101.913 82.1709 99.8492 82.5773C97.786 82.9837 96.0822 81.0924 96.0666 78.357L73.6676 91.737C71.7919 92.8468 70.5258 95.3946 70.5414 97.9737C70.557 101.209 72.5578 103.444 75.0118 102.976L125.546 93.0343C128 92.5498 129.97 89.533 129.954 86.2974V85.4534C129.939 82.7961 128.563 80.7329 126.609 80.4359L103.554 76.9033L103.569 76.872Z" stroke="white" stroke-linecap="round" stroke-linejoin="round"/>
<path d="M100.772 70.479L100.725 62.6948L100.756 61.6006C100.694 56.3487 96.8797 57.4272 96.8797 57.4272C92.7532 58.6151 93.1596 63.1325 93.1596 63.1325L95.6761 62.5385C95.6761 61.3974 96.2701 60.569 97.0673 60.5065C97.8644 60.444 98.6929 60.7409 98.7398 63.0856L98.8023 73.9334L100.787 73.5426C101.256 73.824 101.694 74.4805 101.678 75.981C101.647 78.3413 100.772 79.1541 99.9746 79.4042C99.1774 79.6543 98.5678 79.0603 98.5678 77.9192L96.0513 78.3256C96.0513 78.3256 95.7074 82.9836 99.8339 82.546C99.8339 82.546 103.132 81.8582 103.554 76.8407C103.554 76.8407 104.242 70.7447 100.772 70.4633V70.479Z" fill="#FF527A"/>
<path d="M100.772 70.479L100.725 62.6948L100.756 61.6006C100.694 56.3487 96.8797 57.4272 96.8797 57.4272C92.7532 58.6151 93.1596 63.1325 93.1596 63.1325L95.6761 62.5385C95.6761 61.3974 96.2701 60.569 97.0673 60.5065C97.8644 60.444 98.6929 60.7409 98.7398 63.0856L98.8023 73.9334L100.787 73.5426C101.256 73.824 101.694 74.4805 101.678 75.981C101.647 78.3413 100.772 79.1541 99.9746 79.4042C99.1774 79.6543 98.5678 79.0603 98.5678 77.9192L96.0513 78.3256C96.0513 78.3256 95.7074 82.9836 99.8339 82.546C99.8339 82.546 103.132 81.8582 103.554 76.8407C103.554 76.8407 104.242 70.7447 100.772 70.4633V70.479Z" stroke="#3D4152" stroke-linecap="round" stroke-linejoin="round"/>
<path d="M194.775 138.551H61.5851V142.897H194.775V138.551Z" fill="white"/>
<path d="M194.775 138.551H61.5851V142.897H194.775V138.551Z" stroke="#3D4152" stroke-miterlimit="10" stroke-linecap="round"/>
<path d="M194.775 193.494H61.5851V203.982H194.775V193.494Z" fill="#FF9FB5"/>
<path d="M194.775 193.494H61.5851V197.183H194.775V193.494Z" stroke="#3D4152" stroke-miterlimit="10" stroke-linecap="round"/>
<path d="M61.5851 138.551L79.4667 129.641H176.894L194.775 138.551H61.5851Z" fill="#98ABF9"/>
<path d="M61.5851 138.551L79.4667 129.641H176.894L194.775 138.551H61.5851Z" stroke="#3D4152" stroke-linecap="round" stroke-linejoin="round"/>
<path d="M194.025 197.917H61.5851V203.216H194.025V197.917Z" fill="#98ABF9"/>
<path d="M194.775 197.182H61.5851V203.997H194.775V197.182Z" stroke="#3D4152" stroke-miterlimit="10" stroke-linecap="round"/>
<path d="M100.6 167.218C101.96 170.094 101.069 173.361 98.5991 174.533C96.1294 175.706 93.0345 174.315 91.6746 171.454L69.4632 193.478C67.6031 195.323 67.2124 198.433 68.5097 201.137C70.1197 204.529 73.7773 206.17 76.7003 204.779L136.723 176.347C139.63 174.971 140.693 171.095 139.083 167.703L138.661 166.812C137.332 164.03 134.581 162.341 131.924 162.732L100.6 167.234V167.218Z" stroke="white" stroke-miterlimit="10" stroke-linecap="round"/>
<path d="M93.9098 161.513L90.049 153.369L89.5488 152.213C86.8916 146.71 82.515 149.211 82.515 149.211C77.7944 151.931 80.5142 156.527 80.5142 156.527L83.4684 155.01C82.9057 153.823 83.2652 152.744 84.2656 152.384C85.266 152.025 86.4695 152.056 87.6731 154.495L93.0501 165.858L95.4104 164.733C96.145 164.858 97.036 165.389 97.755 166.984C98.8804 169.469 98.1458 170.641 97.2392 171.188C96.3326 171.735 95.2697 171.329 94.707 170.141L91.6746 171.47C91.6746 171.47 93.5034 176.487 98.5991 174.549C98.5991 174.549 102.507 172.642 100.6 167.234C100.6 167.234 98.5053 160.591 93.9098 161.529V161.513Z" fill="#FF527A"/>
<path d="M93.9098 161.513L90.049 153.369L89.5488 152.213C86.8916 146.71 82.515 149.211 82.515 149.211C77.7944 151.931 80.5142 156.527 80.5142 156.527L83.4684 155.01C82.9057 153.823 83.2652 152.744 84.2656 152.384C85.266 152.025 86.4695 152.056 87.6731 154.495L93.0501 165.858L95.4104 164.733C96.145 164.858 97.036 165.389 97.755 166.984C98.8804 169.469 98.1458 170.641 97.2392 171.188C96.3326 171.735 95.2697 171.329 94.707 170.141L91.6746 171.47C91.6746 171.47 93.5034 176.487 98.5991 174.549C98.5991 174.549 102.507 172.642 100.6 167.234C100.6 167.234 98.5053 160.591 93.9098 161.529V161.513Z" stroke="#3D4152" stroke-miterlimit="10" stroke-linecap="round"/>
<path d="M126.703 42.4218C135.077 42.4218 141.865 41.0501 141.865 39.3581C141.865 37.6661 135.077 36.2945 126.703 36.2945C118.329 36.2945 111.541 37.6661 111.541 39.3581C111.541 41.0501 118.329 42.4218 126.703 42.4218Z" fill="white"/>
<path d="M126.703 42.4218C135.077 42.4218 141.865 41.0501 141.865 39.3581C141.865 37.6661 135.077 36.2945 126.703 36.2945C118.329 36.2945 111.541 37.6661 111.541 39.3581C111.541 41.0501 118.329 42.4218 126.703 42.4218Z" stroke="#3D4152" stroke-miterlimit="10" stroke-linecap="round"/>
<path d="M126.703 45.9075C131.123 45.9075 134.706 44.3259 134.706 42.3749C134.706 40.4239 131.123 38.8423 126.703 38.8423C122.283 38.8423 118.7 40.4239 118.7 42.3749C118.7 44.3259 122.283 45.9075 126.703 45.9075Z" fill="white"/>
<path d="M126.703 45.9075C131.123 45.9075 134.706 44.3259 134.706 42.3749C134.706 40.4239 131.123 38.8423 126.703 38.8423C122.283 38.8423 118.7 40.4239 118.7 42.3749C118.7 44.3259 122.283 45.9075 126.703 45.9075Z" stroke="#3D4152" stroke-miterlimit="10" stroke-linecap="round"/>
<path d="M30.2918 56.2083C32.5536 56.2083 34.3871 54.3748 34.3871 52.113C34.3871 49.8513 32.5536 48.0177 30.2918 48.0177C28.0301 48.0177 26.1965 49.8513 26.1965 52.113C26.1965 54.3748 28.0301 56.2083 30.2918 56.2083Z" stroke="#3D4152" stroke-miterlimit="10" stroke-linecap="round"/>
<path d="M30.2921 52.8945V58.3966H34.8251" stroke="#3D4152" stroke-miterlimit="10" stroke-linecap="round"/>
<path d="M96.3167 10.3159C96.3167 10.3159 122.873 -3.86125 161.794 10.3159" stroke="white" stroke-miterlimit="10" stroke-linecap="round"/>
<path d="M50.9873 17.3659H63.8202" stroke="#3D4152" stroke-miterlimit="10" stroke-linecap="round"/>
<path d="M188.148 17.3659H202.701" stroke="#3D4152" stroke-miterlimit="10" stroke-linecap="round"/>
<path d="M192.228 44.1251V68.9782" stroke="white" stroke-miterlimit="10" stroke-linecap="round"/>
<path d="M216.44 29.6042V138.551" stroke="#3D4152" stroke-linecap="round" stroke-linejoin="round"/>
<path d="M4.2041 29.6042V138.551" stroke="white" stroke-miterlimit="10" stroke-linecap="round"/>
<path d="M4.2041 142.896V174.252" stroke="white" stroke-miterlimit="10" stroke-linecap="round"/>
<path d="M4.2041 183.975V187.726" stroke="white" stroke-miterlimit="10" stroke-linecap="round"/>
<path d="M216.44 148.649V188.805" stroke="#3D4152" stroke-linecap="round" stroke-linejoin="round"/>
<path d="M7.93982 29.6042C7.93982 29.6042 29.698 30.2607 41.5618 33.4963" stroke="white" stroke-miterlimit="10" stroke-linecap="round"/>
<path d="M68.8375 35.5287C68.8375 35.5287 80.1386 32.6057 87.0787 32.6057" stroke="#3D4152" stroke-miterlimit="10" stroke-linecap="round"/>
<path d="M65.2584 42.4065V58.3968" stroke="#3D4152" stroke-miterlimit="10" stroke-linecap="round"/>
<path d="M69.6503 52.1133V71.5893" stroke="#3D4152" stroke-miterlimit="10" stroke-linecap="round"/>
<path d="M111.338 132.846C110.384 132.892 109.478 132.47 108.899 131.72C107.477 129.86 108.759 127.172 111.103 127.109L127.281 127.375L127.672 127.453C130.063 127.937 131.455 129.641 131.455 132.236L111.338 132.83V132.846Z" fill="#FFAA01"/>
<path d="M111.338 132.846C110.384 132.892 109.478 132.47 108.899 131.72C107.477 129.86 108.759 127.172 111.103 127.109L127.281 127.375L127.672 127.453C130.063 127.937 131.455 129.641 131.455 132.236L111.338 132.83V132.846Z" stroke="#3D4152" stroke-linecap="round" stroke-linejoin="round"/>
<path d="M118.903 112.401H163.404C170.751 112.401 176.722 118.372 176.722 125.718C176.722 130.032 173.22 133.518 168.922 133.518H124.749C119.325 133.518 114.933 129.126 114.933 123.702V116.387C114.933 114.183 116.731 112.385 118.934 112.385L118.903 112.401Z" fill="#FFAA01"/>
<path d="M168.109 133.518H120.482C117.402 133.518 114.901 131.861 114.901 129.829V130.923C114.901 130.047 115.98 129.328 117.309 129.328H160.106C164.514 129.328 168.093 130.595 168.093 133.518H168.109Z" fill="#FFE5B2"/>
<path d="M168.109 133.518H120.575C117.449 133.518 114.901 131.846 114.901 129.767L115.105 130.908C115.105 130.064 116.136 129.376 117.418 129.376H160.575C164.842 129.376 168.093 130.517 168.093 133.346V133.518H168.109Z" stroke="#3D4152" stroke-linecap="round" stroke-linejoin="round"/>
<path d="M118.778 112.401H163.81C170.922 112.401 176.706 118.185 176.706 125.297C176.706 129.83 173.017 133.518 168.484 133.518H124.264C119.091 133.518 114.901 129.314 114.901 124.156V116.278C114.901 114.136 116.637 112.401 118.778 112.401Z" stroke="#3D4152" stroke-linecap="round" stroke-linejoin="round"/>
<path d="M131.377 108.258L137.863 105.929C138.457 105.711 138.989 106.383 138.661 106.914L135.019 112.666C135.019 112.666 133.315 109.587 131.377 108.258Z" fill="#FF9FB5"/>
<path d="M131.377 108.258L137.863 105.929C138.457 105.711 138.989 106.383 138.661 106.914L135.019 112.666C135.019 112.666 133.315 109.587 131.377 108.258V108.258Z" stroke="#3D4152" stroke-linecap="round" stroke-linejoin="round"/>
<path d="M110.728 110.838L103.866 110.166C103.225 110.103 102.882 110.885 103.335 111.322L108.274 116.011C108.274 116.011 109.165 112.604 110.728 110.838Z" fill="#FF9FB5"/>
<path d="M110.728 110.838L103.866 110.166C103.225 110.103 102.882 110.885 103.335 111.322L108.274 116.011C108.274 116.011 109.165 112.604 110.728 110.838Z" stroke="#3D4152" stroke-linecap="round" stroke-linejoin="round"/>
<path d="M122.404 134.19C130.441 134.19 136.957 127.675 136.957 119.638C136.957 111.601 130.441 105.086 122.404 105.086C114.367 105.086 107.852 111.601 107.852 119.638C107.852 127.675 114.367 134.19 122.404 134.19Z" fill="#FFAA01"/>
<path d="M122.404 134.19C130.441 134.19 136.957 127.675 136.957 119.638C136.957 111.601 130.441 105.086 122.404 105.086C114.367 105.086 107.852 111.601 107.852 119.638C107.852 127.675 114.367 134.19 122.404 134.19Z" stroke="#3D4152" stroke-linecap="round" stroke-linejoin="round"/>
<path d="M114.511 122.17L111.744 121.592" stroke="#3D4152" stroke-linecap="round" stroke-linejoin="round"/>
<path d="M114.698 123.734L112.479 124.859" stroke="#3D4152" stroke-linecap="round" stroke-linejoin="round"/>
<path d="M128.798 119.919L131.127 119.168" stroke="#3D4152" stroke-linecap="round" stroke-linejoin="round"/>
<path d="M129.001 121.545L131.486 122.076" stroke="#3D4152" stroke-linecap="round" stroke-linejoin="round"/>
<path d="M120.044 124.858C121.529 124.858 122.733 123.655 122.733 122.17C122.733 120.685 121.529 119.481 120.044 119.481C118.559 119.481 117.356 120.685 117.356 122.17C117.356 123.655 118.559 124.858 120.044 124.858Z" fill="#FFE5B2"/>
<path d="M124.812 124.233C126.297 124.233 127.5 123.03 127.5 121.545C127.5 120.06 126.297 118.856 124.812 118.856C123.327 118.856 122.123 120.06 122.123 121.545C122.123 123.03 123.327 124.233 124.812 124.233Z" fill="#FFE5B2"/>
<path d="M122.514 122.06C122.185 123.061 121.529 123.795 120.747 123.936C120.153 124.046 119.575 123.811 119.122 123.311" stroke="#3D4152" stroke-linecap="round" stroke-linejoin="round"/>
<path d="M122.514 122.061C122.999 122.905 123.749 123.374 124.53 123.233C125.124 123.123 125.64 122.67 126 122.029" stroke="#3D4152" stroke-linecap="round" stroke-linejoin="round"/>
<path d="M122.482 122.06L121.592 120.763L123.03 120.591L122.482 122.06Z" stroke="#3D4152" stroke-linecap="round" stroke-linejoin="round"/>
<path d="M133.737 108.587L137.082 107.336" stroke="white" stroke-width="0.5" stroke-linecap="round" stroke-linejoin="round"/>
<path d="M108.602 111.697L104.898 111.088" stroke="white" stroke-width="0.5" stroke-linecap="round" stroke-linejoin="round"/>
<path d="M119.122 106.586C119.122 106.586 117.856 107.618 118.043 109.071" stroke="white" stroke-width="0.5" stroke-linecap="round" stroke-linejoin="round"/>
<path d="M120.997 106.352C120.997 106.352 119.731 107.384 119.919 108.837" stroke="white" stroke-width="0.5" stroke-linecap="round" stroke-linejoin="round"/>
<path d="M123.029 106.101C123.029 106.101 121.763 107.133 121.951 108.587" stroke="white" stroke-width="0.5" stroke-linecap="round" stroke-linejoin="round"/>
<path d="M176.55 121.764H177.691C177.691 121.764 180.629 121.92 180.614 125.062C180.614 126.296 180.551 128.25 180.551 128.25C180.551 128.25 180.395 134.331 173.111 135.05H153.963C153.963 135.05 152.259 134.456 152.322 132.799C152.384 131.142 154.479 130.814 154.479 130.814H172.876C172.876 130.814 175.362 131.033 176.221 128.235C176.221 128.235 176.722 126.25 176.722 125.624L176.565 121.764H176.55Z" fill="#FFAA01"/>
<path d="M176.55 121.764H177.691C177.691 121.764 180.629 121.92 180.614 125.062C180.614 126.296 180.551 128.25 180.551 128.25C180.551 128.25 180.395 134.331 173.111 135.05H153.963C153.963 135.05 152.259 134.456 152.322 132.799C152.384 131.142 154.479 130.814 154.479 130.814H172.876C172.876 130.814 175.362 131.033 176.221 128.235C176.221 128.235 176.722 126.25 176.722 125.624L176.565 121.764H176.55Z" stroke="#3D4152" stroke-linecap="round" stroke-linejoin="round"/>
<path d="M142.646 118.481L140.77 117.074L142.849 114.855L140.411 113.651" stroke="white" stroke-width="0.5" stroke-linecap="round" stroke-linejoin="round"/>
<path d="M138.019 115.339L138.848 114.276L137.847 113.886" stroke="white" stroke-width="0.5" stroke-linecap="round" stroke-linejoin="round"/>
<path d="M145.944 118.637L144.193 117.058L146.476 115.057L144.162 113.635" stroke="white" stroke-width="0.5" stroke-linecap="round" stroke-linejoin="round"/>
<path d="M149.367 118.637L147.616 117.058L149.899 115.057L147.585 113.635" stroke="white" stroke-width="0.5" stroke-linecap="round" stroke-linejoin="round"/>
<path d="M152.791 118.637L151.04 117.058L153.322 115.057L151.009 113.635" stroke="white" stroke-width="0.5" stroke-linecap="round" stroke-linejoin="round"/>
<path d="M156.214 118.637L154.463 117.058L156.745 115.057L154.432 113.635" stroke="white" stroke-width="0.5" stroke-linecap="round" stroke-linejoin="round"/>
<path d="M159.637 118.637L157.886 117.058L160.169 115.057L157.855 113.635" stroke="white" stroke-width="0.5" stroke-linecap="round" stroke-linejoin="round"/>
<path d="M163.06 118.637L161.309 117.058L163.591 115.057L161.278 113.635" stroke="white" stroke-width="0.5" stroke-linecap="round" stroke-linejoin="round"/>
<path d="M165.967 118.715L164.544 116.839L167.155 115.308L165.154 113.463" stroke="white" stroke-width="0.5" stroke-linecap="round" stroke-linejoin="round"/>
<path d="M168.234 119.81L167.327 117.637L170.25 116.809L168.781 114.527" stroke="white" stroke-width="0.5" stroke-linecap="round" stroke-linejoin="round"/>
<path d="M170.203 122.03L169.812 119.701L172.845 119.56L171.938 116.997" stroke="white" stroke-width="0.5" stroke-linecap="round" stroke-linejoin="round"/>
<path d="M171.938 122.263L173.72 123.201L174.236 120.544" stroke="white" stroke-width="0.5" stroke-linecap="round" stroke-linejoin="round"/>
<path d="M162.779 131.736C162.779 131.736 162.779 132.47 163.373 133.314" stroke="white" stroke-width="0.5" stroke-linecap="round" stroke-linejoin="round"/>
<path d="M158.824 131.72C158.824 131.72 158.777 132.455 159.293 133.33" stroke="white" stroke-width="0.5" stroke-linecap="round" stroke-linejoin="round"/>
<path d="M160.825 131.72C160.825 131.72 160.778 132.455 161.294 133.33" stroke="white" stroke-width="0.5" stroke-linecap="round" stroke-linejoin="round"/>
<path d="M168.78 131.736C168.78 131.736 168.78 132.47 169.374 133.314" stroke="white" stroke-width="0.5" stroke-linecap="round" stroke-linejoin="round"/>
<path d="M164.842 131.72C164.842 131.72 164.795 132.455 165.311 133.33" stroke="white" stroke-width="0.5" stroke-linecap="round" stroke-linejoin="round"/>
<path d="M166.842 131.72C166.842 131.72 166.795 132.455 167.311 133.33" stroke="white" stroke-width="0.5" stroke-linecap="round" stroke-linejoin="round"/>
<path d="M174.705 131.501C174.705 131.501 174.814 132.236 175.502 132.986" stroke="white" stroke-width="0.5" stroke-linecap="round" stroke-linejoin="round"/>
<path d="M176.002 130.564C176.002 130.564 176.299 131.236 177.159 131.783" stroke="white" stroke-width="0.5" stroke-linecap="round" stroke-linejoin="round"/>
<path d="M176.863 129.328C176.863 129.328 177.331 129.907 178.301 130.188" stroke="white" stroke-width="0.5" stroke-linecap="round" stroke-linejoin="round"/>
<path d="M177.487 127.797C177.487 127.797 178.113 128.187 179.129 128.156" stroke="white" stroke-width="0.5" stroke-linecap="round" stroke-linejoin="round"/>
<path d="M177.565 126.344C177.565 126.344 178.269 126.562 179.238 126.25" stroke="white" stroke-width="0.5" stroke-linecap="round" stroke-linejoin="round"/>
<path d="M177.565 125.061C177.565 125.061 178.3 124.967 179.05 124.28" stroke="white" stroke-width="0.5" stroke-linecap="round" stroke-linejoin="round"/>
<path d="M177.222 123.998C177.362 123.795 177.519 123.529 177.644 123.201" stroke="white" stroke-width="0.5" stroke-linecap="round" stroke-linejoin="round"/>
<path d="M170.86 131.72C170.86 131.72 170.813 132.455 171.329 133.33" stroke="white" stroke-width="0.5" stroke-linecap="round" stroke-linejoin="round"/>
<path d="M172.845 131.72C172.845 131.72 172.798 132.455 173.314 133.33" stroke="white" stroke-width="0.5" stroke-linecap="round" stroke-linejoin="round"/>
<path d="M117.184 117.778C117.184 117.778 119.122 118.575 120.044 116.84" stroke="#3D4152" stroke-linecap="round" stroke-linejoin="round"/>
<path d="M123.03 116.136C123.03 116.136 124.499 117.637 126.031 116.418" stroke="#3D4152" stroke-linecap="round" stroke-linejoin="round"/>
<path d="M122.326 128.391C121.373 128.344 120.466 128.766 119.888 129.517C118.465 131.377 119.747 134.065 122.092 134.128L138.27 133.862L138.66 133.784C141.052 133.299 142.677 132.533 142.443 127.266H135.69L135.456 128.798L122.326 128.407V128.391Z" fill="#FFAA01"/>
<path d="M122.326 128.391C121.373 128.344 120.466 128.766 119.888 129.517C118.465 131.377 119.747 134.065 122.092 134.128L138.27 133.862L138.66 133.784C141.099 133.534 142.849 132.33 142.443 127.266H135.69L135.456 128.798L122.326 128.407V128.391Z" stroke="#3D4152" stroke-linecap="round" stroke-linejoin="round"/>
<path d="M142.068 126.265H135.972V128.172H142.068V126.265Z" fill="#FFAA01"/>
<path d="M143.506 105.086L146.492 104.554L145.804 107.962H148.743" stroke="#3D4152" stroke-linecap="round" stroke-linejoin="round"/>
<path d="M151.009 98.583L154.432 96.848V102.303L158.824 100.302" stroke="#3D4152" stroke-linecap="round" stroke-linejoin="round"/>
<path d="M221.77 217.065L216.518 214.298L220.16 211.329L221.77 217.065Z" stroke="#3D4152" stroke-linecap="round" stroke-linejoin="round"/>
<path d="M39.6237 219.113L43.7815 214.877L45.579 219.238L39.6237 219.113Z" stroke="#98ABF9" stroke-linecap="round" stroke-linejoin="round"/>
<path d="M148.743 226.975C150.219 226.975 151.415 225.778 151.415 224.302C151.415 222.826 150.219 221.629 148.743 221.629C147.266 221.629 146.07 222.826 146.07 224.302C146.07 225.778 147.266 226.975 148.743 226.975Z" stroke="#FF9FB5" stroke-miterlimit="10"/>
</svg>
